<svg viewBox="0 0 600 400" xmlns="http://www.w3.org/2000/svg" font-family="Inter,sans-serif">
  <defs>
    <linearGradient id="bg4" x1="0%" y1="0%" x2="100%" y2="100%">
      <stop offset="0%" style="stop-color:#160f25"/>
      <stop offset="100%" style="stop-color:#0d0f1a"/>
    </linearGradient>
  </defs>
  <rect width="600" height="400" fill="url(#bg4)" rx="12"/>
  <rect x="0" y="0" width="600" height="56" fill="#110d1c" rx="12"/>
  <rect x="0" y="44" width="600" height="12" fill="#110d1c"/>
  <circle cx="24" cy="28" r="7" fill="#a78bfa"/>
  <text x="40" y="32" fill="#c4b5fd" font-size="11" font-weight="700">APP INSTALL CAMPAIGN</text>
  <rect x="480" y="18" width="100" height="20" rx="10" fill="#a78bfa" opacity="0.2"/>
  <text x="530" y="32" fill="#c4b5fd" font-size="10" text-anchor="middle" font-weight="600">APP MARKETING</text>

  <!-- Phone mockup left -->
  <rect x="24" y="70" width="130" height="240" rx="18" fill="#1a1230" stroke="#2d2048" stroke-width="2"/>
  <rect x="34" y="82" width="110" height="216" rx="12" fill="#110d1c"/>
  <!-- App icon rows -->
  <rect x="44" y="94" width="36" height="36" rx="10" fill="#a78bfa" opacity="0.8"/>
  <rect x="88" y="94" width="36" height="36" rx="10" fill="#4f6ef7" opacity="0.8"/>
  <rect x="44" y="138" width="36" height="36" rx="10" fill="#ff6b35" opacity="0.8"/>
  <rect x="88" y="138" width="36" height="36" rx="10" fill="#22c55e" opacity="0.8"/>
  <!-- Install badge -->
  <rect x="44" y="188" width="80" height="22" rx="11" fill="#a78bfa"/>
  <text x="84" y="203" fill="#fff" font-size="9" text-anchor="middle" font-weight="700">INSTALLED</text>
  <text x="89" y="230" fill="#c4b5fd" font-size="8" text-anchor="middle">AppsFlyer tracked</text>

  <!-- Funnel chart -->
  <rect x="170" y="70" width="230" height="240" rx="10" fill="#110d1c"/>
  <text x="186" y="92" fill="#a9aecf" font-size="11" font-weight="600">Install Funnel</text>

  <!-- Funnel bars -->
  <rect x="186" y="102" width="198" height="28" rx="5" fill="#a78bfa" opacity="0.9"/>
  <text x="287" y="121" fill="#fff" font-size="10" text-anchor="middle" font-weight="700">Ad Impressions: 4.2M</text>

  <rect x="200" y="136" width="170" height="28" rx="5" fill="#8b5cf6" opacity="0.85"/>
  <text x="285" y="155" fill="#fff" font-size="10" text-anchor="middle" font-weight="700">Clicks: 84,000</text>

  <rect x="216" y="170" width="138" height="28" rx="5" fill="#7c3aed" opacity="0.8"/>
  <text x="285" y="189" fill="#fff" font-size="10" text-anchor="middle" font-weight="700">Store Visits: 42,000</text>

  <rect x="232" y="204" width="106" height="28" rx="5" fill="#6d28d9" opacity="0.9"/>
  <text x="285" y="223" fill="#fff" font-size="10" text-anchor="middle" font-weight="700">Installs: 18,600</text>

  <rect x="248" y="238" width="74" height="28" rx="5" fill="#5b21b6"/>
  <text x="285" y="257" fill="#fff" font-size="10" text-anchor="middle" font-weight="700">Active: 11,200</text>

  <!-- KPIs right -->
  <rect x="414" y="70" width="166" height="240" rx="10" fill="#110d1c"/>
  <text x="430" y="92" fill="#a9aecf" font-size="11" font-weight="600">Key Results</text>

  <rect x="428" y="100" width="138" height="40" rx="7" fill="#1a1230"/>
  <text x="440" y="115" fill="#5a5f80" font-size="8" font-weight="600">TOTAL INSTALLS</text>
  <text x="440" y="133" fill="#eaecf8" font-size="17" font-weight="800">18,600+</text>

  <rect x="428" y="146" width="138" height="40" rx="7" fill="#1a1230"/>
  <text x="440" y="161" fill="#5a5f80" font-size="8" font-weight="600">COST PER INSTALL</text>
  <text x="440" y="179" fill="#eaecf8" font-size="17" font-weight="800">₹12.4</text>

  <rect x="428" y="192" width="138" height="40" rx="7" fill="#1a1230"/>
  <text x="440" y="207" fill="#5a5f80" font-size="8" font-weight="600">TRACKING</text>
  <text x="440" y="225" fill="#c4b5fd" font-size="14" font-weight="700">AppsFlyer</text>

  <rect x="428" y="238" width="138" height="40" rx="7" fill="#1a1230"/>
  <text x="440" y="253" fill="#5a5f80" font-size="8" font-weight="600">RETENTION D7</text>
  <text x="440" y="271" fill="#eaecf8" font-size="17" font-weight="800">60%</text>

  <!-- Bottom stat row -->
  <rect x="20" y="324" width="560" height="44" rx="10" fill="#110d1c"/>
  <text x="36" y="341" fill="#5a5f80" font-size="9" font-weight="600">PLATFORM</text>
  <text x="36" y="357" fill="#eaecf8" font-size="11" font-weight="600">Meta App Install Ads + Google UAC</text>
  <text x="360" y="341" fill="#5a5f80" font-size="9" font-weight="600">PIXEL/SDK</text>
  <text x="360" y="357" fill="#c4b5fd" font-size="11" font-weight="600">AppsFlyer + Meta Pixel</text>
</svg>
