<svg viewBox="0 0 600 400" xmlns="http://www.w3.org/2000/svg" font-family="Inter,sans-serif">
  <defs>
    <linearGradient id="bg2" x1="0%" y1="0%" x2="100%" y2="100%">
      <stop offset="0%" style="stop-color:#1a1020"/>
      <stop offset="100%" style="stop-color:#0d0f1a"/>
    </linearGradient>
  </defs>
  <rect width="600" height="400" fill="url(#bg2)" rx="12"/>
  <rect x="0" y="0" width="600" height="56" fill="#120d1e" rx="12"/>
  <rect x="0" y="44" width="600" height="12" fill="#120d1e"/>
  <circle cx="24" cy="28" r="7" fill="#ff6b35"/>
  <text x="40" y="32" fill="#ff9166" font-size="11" font-weight="700">E-COMMERCE SALES CAMPAIGN</text>
  <rect x="480" y="18" width="100" height="20" rx="10" fill="#ff6b35" opacity="0.2"/>
  <text x="530" y="32" fill="#ff9166" font-size="10" text-anchor="middle" font-weight="600">META ADS</text>

  <!-- ROAS donut simulation with arcs -->
  <text x="170" y="90" fill="#a9aecf" font-size="11" font-weight="600" text-anchor="middle">ROAS Performance</text>
  <circle cx="170" cy="185" r="70" fill="none" stroke="#1e1428" stroke-width="20"/>
  <circle cx="170" cy="185" r="70" fill="none" stroke="#ff6b35" stroke-width="20"
    stroke-dasharray="308 131" stroke-dashoffset="87" stroke-linecap="round"/>
  <circle cx="170" cy="185" r="70" fill="none" stroke="#a78bfa" stroke-width="20"
    stroke-dasharray="100 339" stroke-dashoffset="-221" stroke-linecap="round" opacity="0.6"/>
  <text x="170" y="180" fill="#eaecf8" font-size="28" font-weight="800" text-anchor="middle">4.8x</text>
  <text x="170" y="200" fill="#ff9166" font-size="11" text-anchor="middle" font-weight="600">ROAS Achieved</text>

  <!-- Legend -->
  <circle cx="80" cy="278" r="6" fill="#ff6b35"/>
  <text x="92" y="283" fill="#a9aecf" font-size="10">Revenue: 70%</text>
  <circle cx="80" cy="298" r="6" fill="#a78bfa"/>
  <text x="92" y="303" fill="#a9aecf" font-size="10">Ad Spend: 21%</text>

  <!-- KPI column right -->
  <rect x="300" y="70" width="280" height="290" rx="12" fill="#120d1e"/>
  <text x="320" y="96" fill="#a9aecf" font-size="11" font-weight="600">Key Metrics</text>

  <rect x="316" y="106" width="248" height="52" rx="8" fill="#1e1428"/>
  <text x="330" y="124" fill="#5a5f80" font-size="9" font-weight="600">TOTAL REVENUE DRIVEN</text>
  <text x="330" y="147" fill="#eaecf8" font-size="20" font-weight="800">₹11.5L+</text>

  <rect x="316" y="164" width="248" height="52" rx="8" fill="#1e1428"/>
  <text x="330" y="182" fill="#5a5f80" font-size="9" font-weight="600">AVG. ORDER VALUE</text>
  <text x="330" y="205" fill="#eaecf8" font-size="20" font-weight="800">₹2,400</text>

  <rect x="316" y="222" width="248" height="52" rx="8" fill="#1e1428"/>
  <text x="330" y="240" fill="#5a5f80" font-size="9" font-weight="600">CONVERSION RATE</text>
  <text x="330" y="263" fill="#eaecf8" font-size="20" font-weight="800">3.2%</text>
  <text x="480" y="263" fill="#34d874" font-size="11" font-weight="700">↑ +1.1%</text>

  <rect x="316" y="280" width="248" height="52" rx="8" fill="#1e1428"/>
  <text x="330" y="298" fill="#5a5f80" font-size="9" font-weight="600">TOTAL AD SPEND</text>
  <text x="330" y="321" fill="#eaecf8" font-size="20" font-weight="800">₹2.4L</text>
  <text x="480" y="321" fill="#ff9166" font-size="11" font-weight="700">6 months</text>

  <rect x="0" y="370" width="600" height="30" fill="#0a0810"/>
  <text x="20" y="389" fill="#5a5f80" font-size="10">Meta Ads · Catalogue &amp; Dynamic Ads · Managed at PixellKey</text>
  <circle cx="575" cy="385" r="8" fill="#ff6b35" opacity="0.3"/>
  <text x="575" y="389" fill="#ff9166" font-size="9" text-anchor="middle" font-weight="700">M</text>
</svg>
