<svg viewBox="0 0 600 400" xmlns="http://www.w3.org/2000/svg" font-family="Inter,sans-serif">
  <defs>
    <linearGradient id="bg3" x1="0%" y1="0%" x2="100%" y2="100%">
      <stop offset="0%" style="stop-color:#0f1a12"/>
      <stop offset="100%" style="stop-color:#0d0f1a"/>
    </linearGradient>
    <linearGradient id="lineg" x1="0%" y1="0%" x2="100%" y2="0%">
      <stop offset="0%" style="stop-color:#22c55e"/>
      <stop offset="100%" style="stop-color:#4f6ef7"/>
    </linearGradient>
  </defs>
  <rect width="600" height="400" fill="url(#bg3)" rx="12"/>
  <rect x="0" y="0" width="600" height="56" fill="#0c1410" rx="12"/>
  <rect x="0" y="44" width="600" height="12" fill="#0c1410"/>
  <circle cx="24" cy="28" r="7" fill="#22c55e"/>
  <text x="40" y="32" fill="#34d874" font-size="11" font-weight="700">PAN INDIA AWARENESS CAMPAIGN</text>
  <rect x="480" y="18" width="100" height="20" rx="10" fill="#22c55e" opacity="0.2"/>
  <text x="530" y="32" fill="#34d874" font-size="10" text-anchor="middle" font-weight="600">GOOGLE ADS</text>

  <!-- Impressions area chart simulation -->
  <rect x="20" y="70" width="360" height="200" rx="10" fill="#0c1410"/>
  <text x="36" y="92" fill="#a9aecf" font-size="11" font-weight="600">Impressions Over Time (Millions)</text>

  <!-- Area chart polygon -->
  <polygon points="36,240 70,220 110,200 150,190 190,175 230,155 270,140 310,125 350,110 360,108 360,248 36,248"
    fill="#22c55e" opacity="0.12"/>
  <polyline points="36,240 70,220 110,200 150,190 190,175 230,155 270,140 310,125 350,110"
    fill="none" stroke="#22c55e" stroke-width="2.5" stroke-linecap="round" stroke-linejoin="round"/>

  <!-- Data points -->
  <circle cx="70"  cy="220" r="4" fill="#22c55e"/>
  <circle cx="150" cy="190" r="4" fill="#22c55e"/>
  <circle cx="230" cy="155" r="4" fill="#22c55e"/>
  <circle cx="310" cy="125" r="4" fill="#22c55e"/>
  <circle cx="350" cy="110" r="4" fill="#22c55e"/>

  <!-- X labels -->
  <text x="70"  y="265" fill="#5a5f80" font-size="9" text-anchor="middle">Jan</text>
  <text x="150" y="265" fill="#5a5f80" font-size="9" text-anchor="middle">Feb</text>
  <text x="230" y="265" fill="#5a5f80" font-size="9" text-anchor="middle">Mar</text>
  <text x="310" y="265" fill="#5a5f80" font-size="9" text-anchor="middle">Apr</text>
  <text x="350" y="265" fill="#5a5f80" font-size="9" text-anchor="middle">May</text>

  <!-- Right KPIs -->
  <rect x="394" y="70" width="186" height="200" rx="10" fill="#0c1410"/>
  <text x="410" y="92" fill="#a9aecf" font-size="11" font-weight="600">Campaign KPIs</text>

  <rect x="408" y="100" width="158" height="42" rx="7" fill="#132010"/>
  <text x="420" y="116" fill="#5a5f80" font-size="8" font-weight="600">TOTAL IMPRESSIONS</text>
  <text x="420" y="134" fill="#eaecf8" font-size="18" font-weight="800">12.4M+</text>

  <rect x="408" y="148" width="158" height="42" rx="7" fill="#132010"/>
  <text x="420" y="164" fill="#5a5f80" font-size="8" font-weight="600">TOTAL CLICKS</text>
  <text x="420" y="182" fill="#eaecf8" font-size="18" font-weight="800">1,86,000</text>

  <rect x="408" y="196" width="158" height="42" rx="7" fill="#132010"/>
  <text x="420" y="212" fill="#5a5f80" font-size="8" font-weight="600">AVG. CPC</text>
  <text x="420" y="230" fill="#eaecf8" font-size="18" font-weight="800">₹1.82</text>
  <text x="528" y="230" fill="#34d874" font-size="10" font-weight="700">↓ 22%</text>

  <!-- Search term pills -->
  <rect x="20" y="284" width="560" height="72" rx="10" fill="#0c1410"/>
  <text x="36" y="302" fill="#a9aecf" font-size="10" font-weight="600">Top Performing Keywords</text>
  <rect x="36"  y="310" width="120" height="22" rx="11" fill="#132010"/>
  <text x="96"  y="325" fill="#34d874" font-size="9" text-anchor="middle">performance marketing</text>
  <rect x="164" y="310" width="96"  height="22" rx="11" fill="#132010"/>
  <text x="212" y="325" fill="#34d874" font-size="9" text-anchor="middle">meta ads agency</text>
  <rect x="268" y="310" width="110" height="22" rx="11" fill="#132010"/>
  <text x="323" y="325" fill="#34d874" font-size="9" text-anchor="middle">google ads nagpur</text>
  <rect x="386" y="310" width="92"  height="22" rx="11" fill="#132010"/>
  <text x="432" y="325" fill="#34d874" font-size="9" text-anchor="middle">digital marketing</text>
  <rect x="486" y="310" width="80"  height="22" rx="11" fill="#132010"/>
  <text x="526" y="325" fill="#34d874" font-size="9" text-anchor="middle">lead generation</text>

  <rect x="0" y="368" width="600" height="32" fill="#080e09" rx="0"/>
  <text x="20" y="389" fill="#5a5f80" font-size="10">Google Search &amp; Display · PAN India · Managed at PixellKey</text>
  <circle cx="575" cy="384" r="8" fill="#22c55e" opacity="0.3"/>
  <text x="575" y="388" fill="#34d874" font-size="9" text-anchor="middle" font-weight="700">G</text>
</svg>
