<svg width="600" height="380" xmlns="http://www.w3.org/2000/svg">
  <defs>
    <linearGradient id="bg4" x1="0" y1="0" x2="1" y2="1">
      <stop offset="0%" stop-color="#0b0019"/>
      <stop offset="100%" stop-color="#1a0035"/>
    </linearGradient>
    <linearGradient id="purpbar" x1="0" y1="1" x2="0" y2="0">
      <stop offset="0%" stop-color="#7B2FBE"/>
      <stop offset="100%" stop-color="#A855F7"/>
    </linearGradient>
  </defs>
  <rect width="600" height="380" fill="url(#bg4)" rx="16"/>
  <rect x="0" y="0" width="600" height="48" fill="rgba(255,255,255,0.04)" rx="16"/>
  <text x="22" y="31" font-family="Arial" font-size="13" fill="rgba(200,150,255,0.7)" font-weight="600">META ADS · APP INSTALL (APPSFLYER)</text>

  <!-- Big install number -->
  <text x="22" y="86" font-family="Arial" font-size="11" fill="rgba(255,255,255,0.35)">TOTAL APP INSTALLS</text>
  <text x="22" y="132" font-family="Arial" font-size="52" fill="white" font-weight="900">2,840</text>
  <text x="24" y="155" font-family="Arial" font-size="12" fill="#A855F7">▲ 34% vs prev month</text>

  <!-- KPI row -->
  <rect x="22" y="172" width="118" height="60" rx="10" fill="rgba(168,85,247,0.1)" stroke="rgba(168,85,247,0.3)" stroke-width="1"/>
  <text x="81" y="194" text-anchor="middle" font-family="Arial" font-size="10" fill="rgba(200,150,255,0.7)">CPI</text>
  <text x="81" y="222" text-anchor="middle" font-family="Arial" font-size="24" fill="#A855F7" font-weight="800">₹18</text>

  <rect x="152" y="172" width="118" height="60" rx="10" fill="rgba(255,180,0,0.08)" stroke="rgba(255,180,0,0.25)" stroke-width="1"/>
  <text x="211" y="194" text-anchor="middle" font-family="Arial" font-size="10" fill="rgba(255,200,80,0.7)">D7 RETENTION</text>
  <text x="211" y="222" text-anchor="middle" font-family="Arial" font-size="24" fill="#FFB800" font-weight="800">28%</text>

  <rect x="282" y="172" width="118" height="60" rx="10" fill="rgba(76,175,80,0.08)" stroke="rgba(76,175,80,0.25)" stroke-width="1"/>
  <text x="341" y="194" text-anchor="middle" font-family="Arial" font-size="10" fill="rgba(100,220,110,0.7)">IN-APP EVENT</text>
  <text x="341" y="222" text-anchor="middle" font-family="Arial" font-size="24" fill="#4CAF50" font-weight="800">62%</text>

  <rect x="412" y="172" width="166" height="60" rx="10" fill="rgba(255,255,255,0.05)" stroke="rgba(255,255,255,0.1)" stroke-width="1"/>
  <text x="495" y="194" text-anchor="middle" font-family="Arial" font-size="10" fill="rgba(255,255,255,0.4)">SPEND</text>
  <text x="495" y="222" text-anchor="middle" font-family="Arial" font-size="24" fill="white" font-weight="800">₹51,120</text>

  <!-- Daily install bar chart -->
  <text x="22" y="255" font-family="Arial" font-size="11" fill="rgba(255,255,255,0.35)">DAILY INSTALLS — LAST 7 DAYS</text>
  <!-- bars -->
  <!-- day bars with varying heights -->
  <rect x="40"  y="330" width="40" height="-46" rx="5" fill="url(#purpbar)" opacity="0.8"/>
  <text x="60" y="320" text-anchor="middle" font-family="Arial" font-size="9" fill="rgba(255,255,255,0.45)">312</text>
  <text x="60" y="346" text-anchor="middle" font-family="Arial" font-size="9" fill="rgba(255,255,255,0.35)">Mon</text>

  <rect x="104" y="305" width="40" height="25" rx="5" fill="url(#purpbar)" opacity="0.8" transform="scale(1,-1) translate(0,-630)"/>
  <rect x="104" y="304" width="40" height="26" rx="5" fill="url(#purpbar)" opacity="0.0"/>
  <rect x="104" y="310" width="40" height="20" rx="5" fill="url(#purpbar)" opacity="0.85"/>
  <text x="124" y="303" text-anchor="middle" font-family="Arial" font-size="9" fill="rgba(255,255,255,0.45)">398</text>
  <text x="124" y="346" text-anchor="middle" font-family="Arial" font-size="9" fill="rgba(255,255,255,0.35)">Tue</text>

  <!-- simpler approach for all bars -->
  <rect x="40"  y="284" width="40" height="46" rx="5" fill="url(#purpbar)" opacity="0.8"/>
  <rect x="104" y="270" width="40" height="60" rx="5" fill="url(#purpbar)" opacity="0.85"/>
  <rect x="168" y="260" width="40" height="70" rx="5" fill="#A855F7" opacity="0.9"/>
  <rect x="232" y="248" width="40" height="82" rx="5" fill="#A855F7" opacity="0.95"/>
  <rect x="296" y="254" width="40" height="76" rx="5" fill="url(#purpbar)" opacity="0.85"/>
  <rect x="360" y="268" width="40" height="62" rx="5" fill="url(#purpbar)" opacity="0.8"/>

  <text x="60"  y="278" text-anchor="middle" font-family="Arial" font-size="9" fill="rgba(255,255,255,0.5)">312</text>
  <text x="124" y="264" text-anchor="middle" font-family="Arial" font-size="9" fill="rgba(255,255,255,0.5)">398</text>
  <text x="188" y="254" text-anchor="middle" font-family="Arial" font-size="9" fill="rgba(255,255,255,0.5)">448</text>
  <text x="252" y="242" text-anchor="middle" font-family="Arial" font-size="9" fill="rgba(255,255,255,0.5)">524</text>
  <text x="316" y="248" text-anchor="middle" font-family="Arial" font-size="9" fill="rgba(255,255,255,0.5)">486</text>
  <text x="380" y="262" text-anchor="middle" font-family="Arial" font-size="9" fill="rgba(255,255,255,0.5)">410</text>

  <line x1="22" y1="332" x2="430" y2="332" stroke="rgba(255,255,255,0.07)" stroke-width="1"/>

  <text x="60"  y="346" text-anchor="middle" font-family="Arial" font-size="9" fill="rgba(255,255,255,0.35)">Mon</text>
  <text x="124" y="346" text-anchor="middle" font-family="Arial" font-size="9" fill="rgba(255,255,255,0.35)">Tue</text>
  <text x="188" y="346" text-anchor="middle" font-family="Arial" font-size="9" fill="rgba(255,255,255,0.35)">Wed</text>
  <text x="252" y="346" text-anchor="middle" font-family="Arial" font-size="9" fill="rgba(255,255,255,0.35)">Thu</text>
  <text x="316" y="346" text-anchor="middle" font-family="Arial" font-size="9" fill="rgba(255,255,255,0.35)">Fri</text>
  <text x="380" y="346" text-anchor="middle" font-family="Arial" font-size="9" fill="rgba(255,255,255,0.35)">Sat</text>

  <!-- AppsFlyer badge -->
  <rect x="448" y="250" width="130" height="96" rx="12" fill="rgba(168,85,247,0.12)" stroke="rgba(168,85,247,0.25)" stroke-width="1"/>
  <text x="513" y="272" text-anchor="middle" font-family="Arial" font-size="10" fill="rgba(200,150,255,0.6)">APPSFLYER</text>
  <text x="513" y="295" text-anchor="middle" font-family="Arial" font-size="10" fill="rgba(255,255,255,0.5)">Tracked via</text>
  <text x="513" y="313" text-anchor="middle" font-family="Arial" font-size="11" fill="white" font-weight="700">SDK Events</text>
  <text x="513" y="332" text-anchor="middle" font-family="Arial" font-size="10" fill="#A855F7">✓ Verified</text>
</svg>