<svg width="600" height="380" xmlns="http://www.w3.org/2000/svg">
  <defs>
    <linearGradient id="bg2" x1="0" y1="0" x2="1" y2="1">
      <stop offset="0%" stop-color="#0a0e1a"/>
      <stop offset="100%" stop-color="#12172b"/>
    </linearGradient>
  </defs>
  <rect width="600" height="380" fill="url(#bg2)" rx="16"/>
  <rect x="0" y="0" width="600" height="48" fill="rgba(255,255,255,0.05)" rx="16"/>
  <text x="22" y="31" font-family="Arial" font-size="13" fill="rgba(255,255,255,0.5)" font-weight="600">META ADS · E-COMMERCE SALES</text>

  <!-- ROAS badge big -->
  <rect x="22" y="66" width="180" height="90" rx="14" fill="rgba(255,180,0,0.12)" stroke="rgba(255,180,0,0.3)" stroke-width="1"/>
  <text x="112" y="104" text-anchor="middle" font-family="Arial" font-size="12" fill="rgba(255,200,0,0.7)">ROAS</text>
  <text x="112" y="140" text-anchor="middle" font-family="Arial" font-size="38" fill="#FFB800" font-weight="900">4.8x</text>

  <rect x="216" y="66" width="180" height="90" rx="14" fill="rgba(76,175,80,0.1)" stroke="rgba(76,175,80,0.3)" stroke-width="1"/>
  <text x="306" y="104" text-anchor="middle" font-family="Arial" font-size="12" fill="rgba(76,200,80,0.7)">REVENUE</text>
  <text x="306" y="140" text-anchor="middle" font-family="Arial" font-size="30" fill="#4CAF50" font-weight="900">₹1.44L</text>

  <rect x="410" y="66" width="168" height="90" rx="14" fill="rgba(71,118,230,0.1)" stroke="rgba(71,118,230,0.3)" stroke-width="1"/>
  <text x="494" y="104" text-anchor="middle" font-family="Arial" font-size="12" fill="rgba(100,150,255,0.7)">PURCHASES</text>
  <text x="494" y="140" text-anchor="middle" font-family="Arial" font-size="30" fill="#7B96FF" font-weight="900">248</text>

  <!-- Bar chart -->
  <text x="22" y="186" font-family="Arial" font-size="11" fill="rgba(255,255,255,0.4)">WEEKLY REVENUE (₹)</text>
  <!-- bars -->
  <rect x="34" y="270" width="46" height="-58" rx="5" fill="#4776E6" opacity="0.8"/>
  <rect x="34" y="212" width="46" height="58" rx="5" fill="#4776E6" opacity="0.8"/>
  <text x="57" y="205" text-anchor="middle" font-family="Arial" font-size="9" fill="rgba(255,255,255,0.5)">18k</text>
  <text x="57" y="285" text-anchor="middle" font-family="Arial" font-size="9" fill="rgba(255,255,255,0.4)">W1</text>

  <rect x="104" y="196" width="46" height="74" rx="5" fill="#8E54E9" opacity="0.8"/>
  <text x="127" y="190" text-anchor="middle" font-family="Arial" font-size="9" fill="rgba(255,255,255,0.5)">24k</text>
  <text x="127" y="285" text-anchor="middle" font-family="Arial" font-size="9" fill="rgba(255,255,255,0.4)">W2</text>

  <rect x="174" y="180" width="46" height="90" rx="5" fill="#4776E6" opacity="0.9"/>
  <text x="197" y="174" text-anchor="middle" font-family="Arial" font-size="9" fill="rgba(255,255,255,0.5)">30k</text>
  <text x="197" y="285" text-anchor="middle" font-family="Arial" font-size="9" fill="rgba(255,255,255,0.4)">W3</text>

  <rect x="244" y="162" width="46" height="108" rx="5" fill="#FFB800" opacity="0.85"/>
  <text x="267" y="156" text-anchor="middle" font-family="Arial" font-size="9" fill="rgba(255,255,255,0.5)">36k</text>
  <text x="267" y="285" text-anchor="middle" font-family="Arial" font-size="9" fill="rgba(255,255,255,0.4)">W4</text>

  <line x1="22" y1="271" x2="580" y2="271" stroke="rgba(255,255,255,0.08)" stroke-width="1"/>

  <!-- Audience split -->
  <rect x="330" y="168" width="248" height="114" rx="12" fill="rgba(255,255,255,0.04)" stroke="rgba(255,255,255,0.08)" stroke-width="1"/>
  <text x="344" y="188" font-family="Arial" font-size="11" fill="rgba(255,255,255,0.4)">AUDIENCE SPLIT</text>
  <rect x="344" y="200" width="90" height="8" rx="4" fill="#4776E6"/>
  <text x="444" y="209" font-family="Arial" font-size="10" fill="rgba(255,255,255,0.6)">Retargeting 45%</text>
  <rect x="344" y="222" width="120" height="8" rx="4" fill="#FFB800"/>
  <text x="474" y="231" font-family="Arial" font-size="10" fill="rgba(255,255,255,0.6)">Lookalike 60%</text>
  <rect x="344" y="244" width="60" height="8" rx="4" fill="#8E54E9"/>
  <text x="414" y="253" font-family="Arial" font-size="10" fill="rgba(255,255,255,0.6)">Interest 30%</text>

  <!-- Bottom KPIs -->
  <rect x="22" y="300" width="110" height="58" rx="10" fill="rgba(255,255,255,0.05)"/>
  <text x="77" y="322" text-anchor="middle" font-family="Arial" font-size="10" fill="rgba(255,255,255,0.4)">SPEND</text>
  <text x="77" y="346" text-anchor="middle" font-family="Arial" font-size="18" fill="white" font-weight="800">₹30k</text>

  <rect x="146" y="300" width="110" height="58" rx="10" fill="rgba(255,255,255,0.05)"/>
  <text x="201" y="322" text-anchor="middle" font-family="Arial" font-size="10" fill="rgba(255,255,255,0.4)">CPC</text>
  <text x="201" y="346" text-anchor="middle" font-family="Arial" font-size="18" fill="#4CAF50" font-weight="800">₹12.1</text>

  <rect x="270" y="300" width="110" height="58" rx="10" fill="rgba(255,255,255,0.05)"/>
  <text x="325" y="322" text-anchor="middle" font-family="Arial" font-size="10" fill="rgba(255,255,255,0.4)">IMPR</text>
  <text x="325" y="346" text-anchor="middle" font-family="Arial" font-size="18" fill="#7B96FF" font-weight="800">84k</text>
</svg>