<svg width="600" height="380" xmlns="http://www.w3.org/2000/svg">
  <defs>
    <linearGradient id="bg3" x1="0" y1="0" x2="1" y2="1">
      <stop offset="0%" stop-color="#0d1117"/>
      <stop offset="100%" stop-color="#161b22"/>
    </linearGradient>
    <linearGradient id="gbar" x1="0" y1="0" x2="0" y2="1">
      <stop offset="0%" stop-color="#34A853"/>
      <stop offset="100%" stop-color="#0F9D58"/>
    </linearGradient>
    <linearGradient id="rbar" x1="0" y1="0" x2="0" y2="1">
      <stop offset="0%" stop-color="#EA4335"/>
      <stop offset="100%" stop-color="#c62828"/>
    </linearGradient>
  </defs>
  <rect width="600" height="380" fill="url(#bg3)" rx="16"/>
  <rect x="0" y="0" width="600" height="48" fill="rgba(255,255,255,0.04)" rx="16"/>
  <text x="22" y="31" font-family="Arial" font-size="13" fill="rgba(255,255,255,0.5)" font-weight="600">GOOGLE ADS · PAN INDIA AWARENESS</text>

  <!-- Google color dots -->
  <circle cx="530" cy="24" r="6" fill="#4285F4"/>
  <circle cx="545" cy="24" r="6" fill="#EA4335"/>
  <circle cx="560" cy="24" r="6" fill="#FBBC05"/>
  <circle cx="575" cy="24" r="6" fill="#34A853"/>

  <!-- Big impression number -->
  <text x="22" y="90" font-family="Arial" font-size="12" fill="rgba(255,255,255,0.4)">TOTAL IMPRESSIONS</text>
  <text x="22" y="136" font-family="Arial" font-size="46" fill="white" font-weight="900">8.4L+</text>
  <rect x="22" y="146" width="120" height="4" rx="2" fill="#4285F4"/>

  <!-- KPIs row -->
  <rect x="22" y="166" width="120" height="56" rx="10" fill="rgba(66,133,244,0.1)" stroke="rgba(66,133,244,0.25)" stroke-width="1"/>
  <text x="82" y="186" text-anchor="middle" font-family="Arial" font-size="10" fill="rgba(100,160,255,0.7)">CTR</text>
  <text x="82" y="212" text-anchor="middle" font-family="Arial" font-size="22" fill="#4285F4" font-weight="800">2.3%</text>

  <rect x="154" y="166" width="120" height="56" rx="10" fill="rgba(234,67,53,0.1)" stroke="rgba(234,67,53,0.25)" stroke-width="1"/>
  <text x="214" y="186" text-anchor="middle" font-family="Arial" font-size="10" fill="rgba(255,120,110,0.7)">CPC</text>
  <text x="214" y="212" text-anchor="middle" font-family="Arial" font-size="22" fill="#EA4335" font-weight="800">₹4.2</text>

  <rect x="286" y="166" width="120" height="56" rx="10" fill="rgba(251,188,5,0.1)" stroke="rgba(251,188,5,0.25)" stroke-width="1"/>
  <text x="346" y="186" text-anchor="middle" font-family="Arial" font-size="10" fill="rgba(255,210,80,0.7)">CONV</text>
  <text x="346" y="212" text-anchor="middle" font-family="Arial" font-size="22" fill="#FBBC05" font-weight="800">1,842</text>

  <!-- City bars -->
  <text x="22" y="248" font-family="Arial" font-size="11" fill="rgba(255,255,255,0.4)">TOP CITIES — CLICKS</text>
  <text x="78" y="270" font-family="Arial" font-size="10" fill="rgba(255,255,255,0.5)">Mumbai</text>
  <rect x="140" y="260" width="180" height="10" rx="4" fill="url(#gbar)"/>
  <text x="328" y="270" font-family="Arial" font-size="10" fill="rgba(255,255,255,0.4)">4,200</text>

  <text x="78" y="292" font-family="Arial" font-size="10" fill="rgba(255,255,255,0.5)">Delhi</text>
  <rect x="140" y="282" width="146" height="10" rx="4" fill="url(#rbar)"/>
  <text x="294" y="292" font-family="Arial" font-size="10" fill="rgba(255,255,255,0.4)">3,420</text>

  <text x="68" y="314" font-family="Arial" font-size="10" fill="rgba(255,255,255,0.5)">Nagpur</text>
  <rect x="140" y="304" width="100" height="10" rx="4" fill="#4285F4" opacity="0.8"/>
  <text x="248" y="314" font-family="Arial" font-size="10" fill="rgba(255,255,255,0.4)">2,340</text>

  <text x="72" y="336" font-family="Arial" font-size="10" fill="rgba(255,255,255,0.5)">Pune</text>
  <rect x="140" y="326" width="74" height="10" rx="4" fill="#FBBC05" opacity="0.8"/>
  <text x="222" y="336" font-family="Arial" font-size="10" fill="rgba(255,255,255,0.4)">1,730</text>

  <!-- Spend badge -->
  <rect x="430" y="166" width="148" height="56" rx="10" fill="rgba(52,168,83,0.1)" stroke="rgba(52,168,83,0.25)" stroke-width="1"/>
  <text x="504" y="186" text-anchor="middle" font-family="Arial" font-size="10" fill="rgba(80,220,120,0.7)">BUDGET USED</text>
  <text x="504" y="212" text-anchor="middle" font-family="Arial" font-size="22" fill="#34A853" font-weight="800">₹35k</text>

  <!-- Device split -->
  <rect x="430" y="240" width="148" height="100" rx="10" fill="rgba(255,255,255,0.04)" stroke="rgba(255,255,255,0.08)" stroke-width="1"/>
  <text x="504" y="260" text-anchor="middle" font-family="Arial" font-size="10" fill="rgba(255,255,255,0.4)">DEVICE SPLIT</text>
  <rect x="444" y="270" width="74" height="7" rx="3" fill="#4285F4"/>
  <text x="526" y="278" font-family="Arial" font-size="9" fill="rgba(255,255,255,0.5)">Mobile 62%</text>
  <rect x="444" y="288" width="46" height="7" rx="3" fill="#EA4335"/>
  <text x="498" y="296" font-family="Arial" font-size="9" fill="rgba(255,255,255,0.5)">Desktop 38%</text>
  <rect x="444" y="306" width="24" height="7" rx="3" fill="#FBBC05"/>
  <text x="476" y="314" font-family="Arial" font-size="9" fill="rgba(255,255,255,0.5)">Tablet</text>
</svg>